<svg width="30" height="30" viewBox="0 0 30 30" fill="none" xmlns="http://www.w3.org/2000/svg">
<path d="M29.8349 13.689L25.3447 9.54562V2.75765H20.1722V4.77307L14.9997 0L0.165102 13.689C-0.0438657 13.8823 -0.0562796 14.2077 0.138205 14.4158C0.332173 14.6235 0.65959 14.6353 0.869592 14.4426L2.58633 12.8584V30H10.8623H19.1382H27.4142V12.8579L29.1309 14.442C29.2302 14.5341 29.357 14.5793 29.4832 14.5793C29.6223 14.5793 29.7604 14.5243 29.8618 14.4153C30.0563 14.2077 30.0439 13.8823 29.8349 13.689ZM21.2067 3.78566H24.3102V8.59111L21.2067 5.72758V3.78566ZM11.8963 28.972V18.1455C11.8963 17.8797 12.1135 17.6638 12.3809 17.6638H17.6186C17.886 17.6638 18.1032 17.8797 18.1032 18.1455V28.972H11.8963ZM26.3792 28.972H19.1377V18.1455C19.1377 17.3128 18.4565 16.6358 17.6186 16.6358H12.3809C11.543 16.6358 10.8618 17.3128 10.8618 18.1455V28.972H3.62031V11.9034L14.9997 1.40272L22.386 8.21845L25.3447 10.9483L26.3792 11.9029V28.972Z" fill="#878DCD"/>
</svg>
