<svg width="30" height="30" viewBox="0 0 30 30" fill="none" xmlns="http://www.w3.org/2000/svg">
<path d="M26.2179 24.9424C28.5683 22.2936 30 18.8116 30 15C30 11.0343 28.4503 7.42603 25.9283 4.74103V4.74052C25.9262 4.73741 25.9231 4.73638 25.9216 4.73379C23.2945 1.94121 19.6138 0.153621 15.5198 0.0134483L15.5193 0.012931L15.2271 0.00517241C15.1516 0.00258621 15.076 0 15 0C14.924 0 14.8484 0.00258621 14.7729 0.00517241L14.4817 0.012931L14.4812 0.0134483C10.3872 0.153621 6.70655 1.94121 4.07948 4.73379C4.07741 4.73638 4.07431 4.73741 4.07276 4.74052C4.07276 4.74052 4.07276 4.74103 4.07224 4.74155C1.54966 7.42603 0 11.0343 0 15C0 18.8116 1.43172 22.2936 3.78207 24.9424C3.78517 24.9471 3.78517 24.9522 3.78879 24.9569C3.7981 24.9698 3.81155 24.976 3.82138 24.9879C6.46241 27.9403 10.2517 29.8422 14.4807 29.9871L14.4812 29.9876L14.7724 29.9953C14.8484 29.9974 14.924 30 15 30C15.076 30 15.1516 29.9974 15.2271 29.9948L15.5183 29.9871L15.5188 29.9866C19.7524 29.8412 23.5459 27.9357 26.1869 24.9771C26.1936 24.9683 26.2045 24.9657 26.2107 24.9564C26.2148 24.9522 26.2148 24.9471 26.2179 24.9424ZM1.04741 15.5172H7.25586C7.31431 17.7098 7.74259 19.8403 8.505 21.8364C7.03397 22.3686 5.62759 23.0824 4.30966 23.9731C2.37155 21.6678 1.16534 18.7293 1.04741 15.5172ZM4.59207 5.70155C5.87897 6.53845 7.24914 7.20879 8.67828 7.70948C7.8031 9.83379 7.31897 12.1241 7.25586 14.4828H1.04741C1.17103 11.1171 2.48897 8.05241 4.59207 5.70155ZM28.9526 14.4828H22.7441C22.681 12.1241 22.1969 9.83379 21.3217 7.70948C22.7509 7.20879 24.121 6.53845 25.4079 5.70155C27.511 8.05241 28.829 11.1171 28.9526 14.4828ZM14.4828 7.73948C12.9874 7.69707 11.5195 7.47414 10.1012 7.07586C11.1497 4.92517 12.63 2.98397 14.4828 1.36759V7.73948ZM14.4828 8.77396V14.4828H8.29035C8.35397 12.2338 8.82569 10.0526 9.66931 8.03017C11.2241 8.48069 12.8384 8.73 14.4828 8.77396ZM15.5172 8.77396C17.1616 8.73 18.7759 8.48121 20.3312 8.03017C21.1748 10.0526 21.6466 12.2338 21.7102 14.4828H15.5172V8.77396ZM15.5172 7.73948V1.36759C17.37 2.98397 18.8503 4.92517 19.8988 7.07586C18.4805 7.47414 17.0126 7.69707 15.5172 7.73948ZM20.9012 6.76138C19.9076 4.67948 18.5286 2.78276 16.8212 1.15707C19.8502 1.55328 22.5755 2.92293 24.6745 4.94224C23.4828 5.69845 22.2186 6.30672 20.9012 6.76138ZM9.09879 6.76138C7.78138 6.30672 6.51724 5.69845 5.32603 4.94224C7.42448 2.92293 10.1503 1.55328 13.1793 1.15707C11.4714 2.78276 10.0924 4.67948 9.09879 6.76138ZM8.29035 15.5172H14.4828V20.7093C12.7722 20.7548 11.0964 21.0217 9.48569 21.5064C8.75793 19.6159 8.34879 17.596 8.29035 15.5172ZM14.4828 21.7438V28.6324C12.4997 26.9022 10.9448 24.8002 9.88759 22.4684C11.3705 22.0314 12.9109 21.7883 14.4828 21.7438ZM15.5172 28.6324V21.7438C17.0891 21.7878 18.6295 22.0314 20.1124 22.4679C19.0552 24.8002 17.5003 26.9022 15.5172 28.6324ZM15.5172 20.7093V15.5172H21.7097C21.6512 17.596 21.2421 19.6159 20.5138 21.5069C18.9036 21.0217 17.2278 20.7548 15.5172 20.7093ZM22.7441 15.5172H28.9526C28.8347 18.7293 27.629 21.6678 25.6903 23.9731C24.3724 23.0824 22.966 22.3686 21.495 21.8364C22.2579 19.8403 22.6857 17.7098 22.7441 15.5172ZM5.01259 24.7479C6.23638 23.9348 7.53931 23.281 8.90069 22.7922C9.90672 25.0474 11.3509 27.1024 13.1788 28.8429C9.99724 28.4266 7.14983 26.9369 5.01259 24.7479ZM16.8212 28.8429C18.6491 27.1029 20.0933 25.0479 21.0993 22.7922C22.4607 23.281 23.7631 23.9348 24.9874 24.7479C22.8502 26.9369 20.0028 28.4266 16.8212 28.8429Z" fill="#878DCD"/>
</svg>
