<svg width="30" height="30" viewBox="0 0 30 30" fill="none" xmlns="http://www.w3.org/2000/svg">
<path d="M15 0C6.729 0 0 6.729 0 15C0 23.271 6.729 30 15 30C23.271 30 30 23.271 30 15C30 6.729 23.271 0 15 0ZM15 29C7.2805 29 1 22.7195 1 15C1 7.2805 7.2805 1 15 1C22.7195 1 29 7.2805 29 15C29 22.7195 22.7195 29 15 29Z" fill="#878DCD"/>
<path d="M14.5 6C16.1545 6 17.5 4.6545 17.5 3C17.5 1.3455 16.1545 0 14.5 0C12.9345 0 11.6475 1.2055 11.5135 2.737L4.4805 7.894C4.043 7.6445 3.5385 7.5 3 7.5C1.3455 7.5 0 8.8455 0 10.5C0 12.1545 1.3455 13.5 3 13.5C3.5385 13.5 4.043 13.3555 4.4805 13.106L11.513 18.263C11.6475 19.7945 12.9345 21 14.5 21C16.1545 21 17.5 19.6545 17.5 18C17.5 16.3455 16.1545 15 14.5 15C13.155 15 12.014 15.89 11.6345 17.1115L5.2765 12.449C5.726 11.924 6 11.244 6 10.5C6 9.756 5.726 9.076 5.276 8.551L11.634 3.8885C12.014 5.11 13.155 6 14.5 6ZM14.5 1C15.603 1 16.5 1.897 16.5 3C16.5 4.103 15.603 5 14.5 5C13.397 5 12.5 4.103 12.5 3C12.5 1.897 13.397 1 14.5 1ZM1 10.5C1 9.397 1.897 8.5 3 8.5C4.103 8.5 5 9.397 5 10.5C5 11.603 4.103 12.5 3 12.5C1.897 12.5 1 11.603 1 10.5ZM14.5 16C15.603 16 16.5 16.897 16.5 18C16.5 19.103 15.603 20 14.5 20C13.397 20 12.5 19.103 12.5 18C12.5 16.897 13.397 16 14.5 16Z" transform="translate(5 4)" fill="#878DCD"/>
</svg>
