<svg width="49" height="45" viewBox="0 0 49 45" fill="none" xmlns="http://www.w3.org/2000/svg">
    <path d="M0.957031 0C0.42875 0 0 0.429637 0 0.95901C0 1.48838 0.42875 1.91802 0.957031 1.91802C1.48531 1.91802 1.91406 1.48838 1.91406 0.95901C1.91406 0.429637 1.48531 0 0.957031 0Z" transform="translate(27.3711 24.9336)" fill="#878DCD"/>
    <path d="M27.7783 12.3252C26.8812 11.4267 24.7056 8.99484 22.9892 5.05101C21.7129 1.98237 18.7451 0 15.426 0C12.1076 0 9.14023 1.98266 7.86364 5.05197C5.71032 10.001 2.7686 12.6201 2.74036 12.6448C2.73692 12.6478 2.73357 12.6509 2.73022 12.6538C0.995121 14.2106 0 16.4407 0 18.7722C0 21.6225 1.35449 24.1013 3.70419 25.6718C5.8935 27.1355 8.60697 27.5743 11.1484 26.8761C12.422 26.5264 13.8961 26.3415 15.4117 26.3415C16.9528 26.3415 18.4487 26.5325 19.7377 26.8939C22.2045 27.5858 24.912 27.2064 27.1472 25.7266C29.5238 24.153 30.9018 21.6508 30.9018 18.7722C30.9018 16.2405 29.7643 13.8943 27.7783 12.3252ZM26.0917 24.1263C24.3669 25.2683 22.2389 25.6037 20.2534 25.0469C18.7986 24.639 17.1244 24.4235 15.4114 24.4235C13.7274 24.4235 12.0783 24.632 10.6421 25.0263C8.63558 25.5777 6.49394 25.2314 4.76611 24.0763C2.96211 22.8704 1.91378 20.9851 1.91378 18.7721C1.91378 16.987 2.67519 15.2793 4.00288 14.0861C4.20711 13.9067 7.31287 11.1204 9.62123 5.81083C9.62333 5.80585 9.62554 5.80086 9.62755 5.79587C10.6045 3.44016 12.8803 1.91802 15.4256 1.91802C17.9719 1.91792 20.2482 3.43978 21.2249 5.79491C21.2269 5.7999 21.2291 5.80489 21.2312 5.80988C23.1056 10.1206 25.5191 12.7819 26.4696 13.7261C26.497 13.7532 26.5259 13.7787 26.5561 13.8023C28.1013 15.0053 28.9874 16.8168 28.9874 18.7721C28.9876 21.0035 27.9223 22.9144 26.0917 24.1263Z" transform="translate(9.08853 17.7719)" fill="#878DCD"/>
    <path d="M1.75918 0.435828C1.47073 -0.00790598 0.877945 -0.133633 0.434935 0.155509C-0.00807504 0.444746 -0.133255 1.03885 0.155194 1.48259C1.61151 3.72312 2.99231 5.21534 3.68597 5.90545C4.06093 6.2785 4.66693 6.27649 5.0395 5.90056C5.41188 5.52472 5.40968 4.91747 5.03462 4.54423C4.39494 3.90783 3.11883 2.52791 1.75918 0.435828Z" transform="translate(29.176 28.3156)" fill="#878DCD"/>
    <path d="M10.158 13.0964C11.0777 11.4858 11.461 9.34652 11.2099 7.22778C10.7241 3.10279 7.88509 -0.35281 4.7132 0.0288763C3.28091 0.198717 2.00748 1.14085 1.12692 2.68169C0.207881 4.2911 -0.175506 6.43036 0.0750453 8.55064C0.86852 15.2872 7.12684 18.4024 10.158 13.0964ZM2.78813 3.63447C3.31201 2.71736 4.12922 1.91985 5.18263 1.91985C7.06616 1.91985 8.95591 4.45346 9.30925 7.45324C9.5131 9.17304 9.21699 10.8827 8.49692 12.1438C6.29125 16.0051 2.497 12.7497 1.97581 8.32546C1.77244 6.60433 2.06864 4.89451 2.78813 3.63447Z" transform="translate(11.2403)" fill="#878DCD"/>
    <path d="M12.2311 9.81765C12.5082 8.10841 12.1715 6.2181 11.2832 4.49486C10.3945 2.77123 9.05062 1.40205 7.49899 0.639446C5.85108 -0.170534 4.16345 -0.212347 2.74704 0.521583C1.33063 1.25494 0.388723 2.65826 0.0945312 4.47338C-0.182529 6.18272 0.154154 8.07293 1.04247 9.79636C1.93127 11.5195 3.27513 12.8884 4.82677 13.651C6.36663 14.4079 8.07263 14.5493 9.57843 13.7697C10.995 13.0364 11.9371 11.6328 12.2311 9.81765ZM8.69997 12.0657C7.83577 12.5133 6.75968 12.4647 5.66972 11.929C4.48396 11.3462 3.44462 10.276 2.74302 8.9158C2.0418 7.55544 1.77211 6.0871 1.98381 4.78084C2.17837 3.58035 2.76159 2.67303 3.62588 2.22555C3.62598 2.22546 3.62607 2.22546 3.62617 2.22536C4.58186 1.73022 5.68876 1.88597 6.65613 2.36145C7.8418 2.94424 8.88113 4.01459 9.58273 5.37523C10.2839 6.73559 10.5536 8.20412 10.3419 9.51029C10.1475 10.7108 9.56426 11.6182 8.69997 12.0657Z" transform="translate(0 13.5934)" fill="#878DCD"/>
    <path d="M5.18159 15.7753C8.08284 15.7753 10.7312 12.6012 11.2108 8.5489C11.7204 4.23202 9.54987 0 6.10216 0C3.20044 0 0.552337 3.17423 0.0739165 7.22643C-0.436277 11.5512 1.74068 15.7753 5.18159 15.7753ZM1.97477 7.4517C2.32907 4.45211 4.2192 1.91792 6.10235 1.91792C6.19098 1.91792 6.26735 1.92224 6.33578 1.93116C7.35626 2.0448 8.14619 2.9385 8.6115 3.851C9.24448 5.09206 9.49905 6.72218 9.31013 8.32325C8.94235 11.4308 6.88683 14.0962 4.94827 13.8441C4.94473 13.8437 4.94119 13.8432 4.93765 13.8427C4.06742 13.7401 3.24198 13.041 2.67312 11.9247C2.04033 10.6836 1.78585 9.05325 1.97477 7.4517Z" transform="translate(26.496 0.0201569)" fill="#878DCD"/>
    <path d="M12.231 4.47211C11.6257 0.737152 8.25641 -1.04833 4.82651 0.638182C1.61768 2.21556 -0.478991 6.27889 0.0943666 9.81648C0.706771 13.5957 4.10969 15.3158 7.49873 13.6498C10.7085 12.0722 12.8042 8.00933 12.231 4.47211ZM6.65577 11.9277C5.56591 12.4634 4.48982 12.5118 3.62553 12.0644V12.0645C2.76123 11.6169 2.17801 10.7093 1.98355 9.50902C1.54599 6.80883 3.21218 3.56825 5.66946 2.35999C7.92135 1.253 9.93906 2.29526 10.3417 4.77948C10.7785 7.47468 9.11755 10.7179 6.65577 11.9277Z" transform="translate(36.6747 13.5985)" fill="#878DCD"/>
</svg>
